# xmcd
#
# Track frame offsets: 
#        151
#        13178
#        27484
#        40568
#        54751
#        66884
#        79837
#        93316
#        105918
#        120254
#        133346
#        147518
#        162350
#        175146
#        187928
#        201572
#        214214
#        226345
#        237915
#        249400
#        262757
#
# Disc length: 3663 seconds
#
# Revision: 0
# Processed by: cddbd v1.5.2PL0 Copyright (c) Steve Scherf et al.
# Submitted via: ExactAudioCopy v0.99pb4
#
DISCID=1a0e4d15
DTITLE=Big Maceo Merriweather - Flying Boogie Vol. 1 (1941-1945) 
DYEAR=2003
DGENRE=Blues
TTITLE0=Worried Life Blues
TTITLE1=Ramblin' Mind Blues
TTITLE2=County Jail Blues
TTITLE3=Can't You Read
TTITLE4=So Long Baby
TTITLE5=Texas Blues
TTITLE6=Tuff Luck Blues
TTITLE7=I Got the Blues
TTITLE8=It's All Up to You
TTITLE9=Bye Bye Baby
TTITLE10=Why Should I Hang Around?
TTITLE11=Poor Kelly Blues
TTITLE12=Some Sweet Day
TTITLE13=Anytime for You
TTITLE14=My Last Go Round
TTITLE15=Since You Been Gone
TTITLE16=Macy Special (Flying Boogie)
TTITLE17=Kid Man Blues
TTITLE18=I'm So Worried
TTITLE19=Things Have Changed
TTITLE20=My Own Troubles
EXTD=
EXTT0=
EXTT1=
EXTT2=
EXTT3=
EXTT4=
EXTT5=
EXTT6=
EXTT7=
EXTT8=
EXTT9=
EXTT10=
EXTT11=
EXTT12=
EXTT13=
EXTT14=
EXTT15=
EXTT16=
EXTT17=
EXTT18=
EXTT19=
EXTT20=
PLAYORDER=
